<svg fill="#7A7A7A" xmlns="http://www.w3.org/2000/svg" xmlns:xlink="http://www.w3.org/1999/xlink" version="1.0" x="0px" y="0px" viewBox="0 0 100 100" enable-background="new 0 0 100 100" xml:space="preserve"><g display="none"><rect x="7" y="7" display="inline" fill="#7A7A7A" stroke="#7A7A7A" stroke-width="0.25" stroke-miterlimit="10" width="86" height="86"></rect></g><g><g><path d="M50,6.044c3.981,0,7.876,0.526,11.682,1.577c3.807,1.051,7.311,2.525,10.512,4.419c3.201,1.896,6.155,4.197,8.862,6.904    c2.707,2.708,5.009,5.662,6.904,8.863c1.895,3.201,3.368,6.705,4.419,10.511c1.052,3.807,1.577,7.701,1.577,11.682    c0,3.409-0.382,6.761-1.146,10.058c-0.765,3.296-1.872,6.386-3.321,9.269c-1.449,2.882-3.177,5.598-5.184,8.146    s-4.284,4.826-6.832,6.833c-2.549,2.007-5.264,3.734-8.146,5.184c-2.883,1.449-5.972,2.556-9.269,3.321S53.408,93.956,50,93.956    c-3.981,0-7.875-0.525-11.682-1.577c-3.806-1.051-7.31-2.524-10.511-4.419c-3.201-1.896-6.156-4.197-8.862-6.904    c-2.708-2.708-5.01-5.662-6.904-8.863c-1.896-3.201-3.368-6.705-4.42-10.511C6.57,57.876,6.045,53.982,6.045,50    c0-6.465,1.321-12.565,3.966-18.299c2.644-5.733,6.307-10.654,10.988-14.763l4.062,4.061c-4.141,3.6-7.39,7.907-9.747,12.924    S11.778,44.299,11.778,50c0,3.472,0.454,6.856,1.361,10.153c0.908,3.297,2.189,6.346,3.847,9.149    c1.655,2.803,3.654,5.375,5.996,7.716c2.341,2.341,4.912,4.339,7.716,5.996c2.803,1.656,5.853,2.938,9.149,3.846    S46.528,88.222,50,88.222c5.191,0,10.145-1.011,14.859-3.034c4.714-2.023,8.774-4.738,12.184-8.146    c3.407-3.409,6.123-7.47,8.146-12.184c2.022-4.713,3.034-9.667,3.034-14.859c0-4.937-0.924-9.675-2.771-14.214    c-1.848-4.539-4.34-8.496-7.477-11.873c-3.138-3.376-6.889-6.131-11.252-8.266c-4.364-2.134-8.982-3.392-13.855-3.774v14.238    h-5.733V6.14C48.089,6.077,49.045,6.044,50,6.044z M56.928,52.867h-8.122L25.3,29.36l4.061-4.061L56.928,52.867z"></path></g></g></svg>