<?xml version="1.0" encoding="utf-8"?>
<!-- Generator: Adobe Illustrator 18.0.0, SVG Export Plug-In . SVG Version: 6.00 Build 0)  -->
<!DOCTYPE svg PUBLIC "-//W3C//DTD SVG 1.1//EN" "http://www.w3.org/Graphics/SVG/1.1/DTD/svg11.dtd">
<svg version="1.1" id="Layer_1" xmlns:sketch="http://www.bohemiancoding.com/sketch/ns"
	 xmlns="http://www.w3.org/2000/svg" xmlns:xlink="http://www.w3.org/1999/xlink" x="0px" y="0px" viewBox="0 0 32 32"
	 enable-background="new 0 0 32 32" xml:space="preserve">
<title>inequality-inequal</title>
<desc>Created with Sketch.</desc>
<g id="Page-1" sketch:type="MSPage">
	<g id="Artboard-1" transform="translate(0.000000, -128.000000)" sketch:type="MSArtboardGroup">
		<path id="_xF243_-3" sketch:type="MSShapeGroup" fill="#7A7A7A" d="M22.9,150l-5.3-0.7l-0.8-10.7l10-4.5l-0.3-0.9l-9.8,3.6
			l-0.1-1.4h-1l-0.1,1.8l-10.1,3.7l0.3,0.9l9.7-2.6l-0.8,10.1L9.1,150v1.2h13.8L22.9,150z M22.2,137c0,1.9,2.2,3.4,4.9,3.4
			c2.7,0,4.9-1.5,4.9-3.4H22.2z M0.1,143.3c0,1.9,2.2,3.4,4.9,3.4s4.9-1.5,4.9-3.4H0.1z"/>
	</g>
</g>
</svg>
