<?xml version="1.0" encoding="utf-8"?>
<!-- Generator: Adobe Illustrator 18.0.0, SVG Export Plug-In . SVG Version: 6.00 Build 0)  -->
<!DOCTYPE svg PUBLIC "-//W3C//DTD SVG 1.1//EN" "http://www.w3.org/Graphics/SVG/1.1/DTD/svg11.dtd">
<svg version="1.1" id="Layer_1" xmlns:sketch="http://www.bohemiancoding.com/sketch/ns"
	 xmlns="http://www.w3.org/2000/svg" xmlns:xlink="http://www.w3.org/1999/xlink" x="0px" y="0px" viewBox="0 0 32 32"
	 enable-background="new 0 0 32 32" xml:space="preserve">
<title>topic-society</title>
<desc>Created with Sketch.</desc>
<g id="Page-1" sketch:type="MSPage">
	<g id="Artboard-1" transform="translate(-192.000000, -160.000000)" sketch:type="MSArtboardGroup">
		<path id="_xF311_-3" sketch:type="MSShapeGroup" fill="#7A7A7A" d="M208.9,163c-1.5,0-2.6,1.2-2.6,2.6s1.2,2.6,2.6,2.6
			c1.5,0,2.6-1.2,2.6-2.6S210.4,163,208.9,163z M198.7,164.4c-1.2,0-2.2,1-2.2,2.2c0,1.3,1,2.3,2.2,2.3c1.3,0,2.3-1,2.3-2.3
			C201,165.5,200,164.4,198.7,164.4z M219.1,164.4c-1.2,0-2.2,1-2.2,2.2c0,1.3,1,2.3,2.2,2.3c1.3,0,2.3-1,2.3-2.3
			C221.4,165.5,220.3,164.4,219.1,164.4z M213.4,171.4l-1.7-1.6h-5.6l-1.6,1.6v8.8l1.6,1.7v8.3h5.6v-8.3l1.7-1.7L213.4,171.4z
			 M202.5,171.8l-1.4-1.4h-4.8l-1.4,1.4v7.7l1.4,1.4h0v7.5h4.7v-7.5l1.4-1.4V171.8z M222.9,171.8l-1.4-1.4h-4.8l-1.4,1.4v7.7
			l1.4,1.4h0v7.5h4.7v-7.5l1.4-1.4V171.8z"/>
	</g>
</g>
</svg>
