<svg fill="#7A7A7A" xmlns="http://www.w3.org/2000/svg" viewBox="0 0 100 100" x="0px" y="0px"><title>Artboard 47</title><g data-name="Layer 2"><path d="M94,16.8335H6a2.0001,2.0001,0,0,0-2,2v62.333a2.0001,2.0001,0,0,0,2,2H94a2.0001,2.0001,0,0,0,2-2V18.8335A2.0001,2.0001,0,0,0,94,16.8335Zm-2,62.333H8V20.8335H92Z"></path><path d="M20.667,35.5H28a2,2,0,0,0,0-4H20.667a2,2,0,0,0,0,4Z"></path><path d="M74,40.8335a2.0001,2.0001,0,0,0-2-2H28a2,2,0,0,0,0,4H72A2.0001,2.0001,0,0,0,74,40.8335Z"></path><path d="M50,53.5H20.667a2,2,0,0,0,0,4H50a2,2,0,0,0,0-4Z"></path><path d="M50,60.8335H20.667a2,2,0,0,0,0,4H50a2,2,0,0,0,0-4Z"></path><path d="M79.333,35.5a2,2,0,0,0,0-4H72a2,2,0,0,0,0,4Z"></path><path d="M76.67188,62.1792a20.09968,20.09968,0,0,1,.6543-2.9541,20.15616,20.15616,0,0,1,1.627-2.55176,2.00094,2.00094,0,0,0,0-2.34668,20.1196,20.1196,0,0,1-1.627-2.55225,20.25264,20.25264,0,0,1-.6543-2.9541,2,2,0,0,0-1.6582-1.65918,20.14239,20.14239,0,0,1-2.9541-.6543,20.241,20.241,0,0,1-2.55371-1.627,2.001,2.001,0,0,0-2.3457.00049,20.27238,20.27238,0,0,1-2.55273,1.62646,20.19144,20.19144,0,0,1-2.95508.6543,2,2,0,0,0-1.6582,1.65967,20.09968,20.09968,0,0,1-.6543,2.9541,20.15616,20.15616,0,0,1-1.627,2.55176,2.00094,2.00094,0,0,0,0,2.34668,20.1196,20.1196,0,0,1,1.627,2.55225,20.25264,20.25264,0,0,1,.6543,2.9541,2,2,0,0,0,1.6582,1.65918c.21576.03448.447.075.68066.11774v9.50922a1.99988,1.99988,0,0,0,3.46387,1.36279L68.333,72.104l2.53613,2.72461A1.99988,1.99988,0,0,0,74.333,73.46582V63.9566c.23364-.04272.4649-.08325.68066-.11774A2,2,0,0,0,76.67188,62.1792ZM70.333,68.38232l-.53613-.57617a2.063,2.063,0,0,0-2.92773,0l-.53613.57617V65.54205c.28595.19379.5705.39215.82617.57758a1.9999,1.9999,0,0,0,2.34668,0c.25592-.18542.54083-.38385.82715-.5777Zm3.29785-10.688a15.161,15.161,0,0,0-.65527,2.44824,15.161,15.161,0,0,0-2.44824.65527A15.14584,15.14584,0,0,0,68.333,62.06592a15.10065,15.10065,0,0,0-2.19434-1.26807,15.161,15.161,0,0,0-2.44824-.65527,15.1543,15.1543,0,0,0-.65527-2.44775A15.06508,15.06508,0,0,0,61.7666,55.5a15.062,15.062,0,0,0,1.26855-2.19434,15.161,15.161,0,0,0,.65527-2.44824,15.161,15.161,0,0,0,2.44824-.65527A15.10047,15.10047,0,0,0,68.333,48.93359a15.15216,15.15216,0,0,0,2.19434,1.26855,15.161,15.161,0,0,0,2.44824.65527,15.1543,15.1543,0,0,0,.65527,2.44775A15.06508,15.06508,0,0,0,74.89941,55.5,15.062,15.062,0,0,0,73.63086,57.69434Z"></path><path d="M13.33008,71.91992A1.91729,1.91729,0,0,1,15.25,73.83008a2.0001,2.0001,0,0,0,2,2H59.33984a2,2,0,0,0,0-4H18.90137a5.94584,5.94584,0,0,0-3.57129-3.563V31.73291a5.94584,5.94584,0,0,0,3.57129-3.563H81.09863a5.94584,5.94584,0,0,0,3.57129,3.563V68.26709a5.94584,5.94584,0,0,0-3.57129,3.563H77.32031a2,2,0,0,0,0,4H82.75a2.0001,2.0001,0,0,0,2-2,1.91729,1.91729,0,0,1,1.91992-1.91016,2.0001,2.0001,0,0,0,2-2V30.08008a2.0001,2.0001,0,0,0-2-2A1.91729,1.91729,0,0,1,84.75,26.16992a2.0001,2.0001,0,0,0-2-2H17.25a2.0001,2.0001,0,0,0-2,2,1.91729,1.91729,0,0,1-1.91992,1.91016,2.0001,2.0001,0,0,0-2,2V69.91992A2.0001,2.0001,0,0,0,13.33008,71.91992Z"></path><path d="M68.333,50.5a5,5,0,1,0,5,5A5.00589,5.00589,0,0,0,68.333,50.5Zm0,6a1,1,0,1,1,1-1A1.001,1.001,0,0,1,68.333,56.5Z"></path><path d="M50,46.1665H20.667a2,2,0,0,0,0,4H50a2,2,0,0,0,0-4Z"></path></g></svg>