<?xml version="1.0" encoding="utf-8"?>
<!-- Generator: Adobe Illustrator 18.0.0, SVG Export Plug-In . SVG Version: 6.00 Build 0)  -->
<!DOCTYPE svg PUBLIC "-//W3C//DTD SVG 1.1//EN" "http://www.w3.org/Graphics/SVG/1.1/DTD/svg11.dtd">
<svg version="1.1" id="Layer_1" xmlns:sketch="http://www.bohemiancoding.com/sketch/ns"
	 xmlns="http://www.w3.org/2000/svg" xmlns:xlink="http://www.w3.org/1999/xlink" x="0px" y="0px" viewBox="0 0 32 32"
	 enable-background="new 0 0 32 32" xml:space="preserve">
<title>topic-jobs</title>
<desc>Created with Sketch.</desc>
<g id="Page-1" sketch:type="MSPage">
	<g id="Artboard-1" transform="translate(-128.000000, -160.000000)" sketch:type="MSArtboardGroup">
		<path id="_xF309_-3" sketch:type="MSShapeGroup" fill="#7A7A7A" d="M141.2,165.2c-2,0-3,1.6-3,3v1.7h-6.4v7h3.4v-2.7h5.3v2.7h8.8
			v-2.7h5.3v2.7h3.4v-7h-6.4v-1.7c0-2-1.6-3-3-3H141.2z M148,167.8c0,0,1,0,1,1v1h-8v-1c0,0,0-1,1-1H148z M138.9,179.9v-4h-2v4
			H138.9z M153,179.9v-4h-2v4H153z M157,188v-9.1h-2.4v2.7h-5.3v-2.7h-8.8v2.7h-5.3v-2.7h-2.4v9.1H157z"/>
	</g>
</g>
</svg>
