<svg fill="#7A7A7A" xmlns="http://www.w3.org/2000/svg" xmlns:xlink="http://www.w3.org/1999/xlink" version="1.1" x="0px" y="0px" viewBox="0 0 100 100" style="enable-background:new 0 0 100 100;" xml:space="preserve"><path d="M50.1,70.3C50.1,55.8,61.9,44,76.5,44c6.6,0,12.6,2.4,17.3,6.5V28c0-2.9-2.3-5.2-5.2-5.2H68.4v-3.1c0-5.3-4.3-9.5-9.5-9.5  H38.2c-5.3,0-9.5,4.3-9.5,9.5v3.1H8.7c-2.9,0-5.2,2.3-5.2,5.2v56.6c0,2.9,2.3,5.2,5.2,5.2h50C53.5,85,50.1,78.1,50.1,70.3z   M34.5,19.7c0-2,1.7-3.7,3.7-3.7h20.7c2,0,3.7,1.7,3.7,3.7v3.1H34.5V19.7z"></path><path d="M56.1,69.4c-0.4,10.8,8.1,20.1,18.9,20.7l0.4,0c5.4,0.2,10.5-1.7,14.4-5.4c3.9-3.7,6.2-8.6,6.3-14  c0.4-10.8-8.1-20.1-18.9-20.7l-0.4,0C65.8,49.7,56.5,58.4,56.1,69.4z M89.8,70.5c-0.1,3.2-1.3,6.1-3.3,8.5l-15-21.8  c1.6-0.6,3.3-0.9,5.1-0.8l0.3,0C84.3,56.8,90.1,63.2,89.8,70.5z M62.5,69.6c0.1-3.4,1.5-6.5,3.7-8.8l15.1,21.9  c-1.7,0.7-3.6,1.1-5.6,1l-0.3,0C68.1,83.3,62.3,77,62.5,69.6z"></path></svg>